<?xml version="1.0" standalone="no"?>
 <!DOCTYPE svg PUBLIC "-//W3C//DTD SVG 1.1//EN" 
 "http://www.w3.org/Graphics/SVG/1.1/DTD/svg11.dtd"> 
<svg
  xmlns:svg="http://www.w3.org/2000/svg"
  xmlns="http://www.w3.org/2000/svg"
  xmlns:xlink="http://www.w3.org/1999/xlink"
  version="1.1"
  width="29.700220cm" height="21.000720cm" viewBox="0 0 116930 82680">
<title>SVG Picture created as Automated Window v1-Motor .svg date 2022/06/18 13:20:48 </title>
  <desc>Picture generated by Eeschema-SVG </desc>
<g style="fill:#000000; fill-opacity:1.000000;stroke:#000000; stroke-opacity:1.000000;
stroke-linecap:round; stroke-linejoin:round;"
 transform="translate(0 0) scale(1 1)">
</g>
<g style="fill:#FFFFFF; fill-opacity:0.0; 
stroke:#FFFFFF; stroke-width:0.000000; stroke-opacity:1; 
stroke-linecap:round; stroke-linejoin:round;">
</g>
<g style="fill:#FFFFFF; fill-opacity:1.0; 
stroke:#FFFFFF; stroke-width:0.039370; stroke-opacity:1; 
stroke-linecap:round; stroke-linejoin:round;">
<rect x="0.000000" y="0.000000" width="116930.000000" height="82680.000000" rx="0.000000" />
</g>
<g style="fill:#000000; fill-opacity:1.0; 
stroke:#000000; stroke-width:0.039370; stroke-opacity:1; 
stroke-linecap:round; stroke-linejoin:round;">
</g>
<g style="fill:#000000; fill-opacity:1.0; 
stroke:#000000; stroke-width:60.000000; stroke-opacity:1; 
stroke-linecap:round; stroke-linejoin:round;">
</g>
<g style="fill:#000000; fill-opacity:0.0; 
stroke:#000000; stroke-width:60.000000; stroke-opacity:1; 
stroke-linecap:round; stroke-linejoin:round;">
<rect x="69605.984252" y="67765.748031" width="42599.606299" height="10189.763780" rx="0.000000" />
<rect x="3937.007874" y="3937.007874" width="109055.984252" height="74805.984252" rx="0.000000" />
<rect x="4724.409449" y="4724.409449" width="107481.181102" height="73231.181102" rx="0.000000" />
<path d="M23622 4724
L23622 3937
" />
<path d="M43307 4724
L43307 3937
" />
<path d="M62992 4724
L62992 3937
" />
<path d="M82677 4724
L82677 3937
" />
<path d="M102362 4724
L102362 3937
" />
<text x="13779.527559" y="4586.614173"
textLength="547.440945" font-size="682.401575" lengthAdjust="spacingAndGlyphs"
text-anchor="start" opacity="0">1</text>
<g class="stroked-text"><desc>1</desc>
<path d="M14199 4562
L13907 4562
" />
<path d="M14053 4562
L14053 4050
L14004 4123
L13955 4172
L13907 4196
" />
</g><text x="33464.566929" y="4586.614173"
textLength="547.440945" font-size="682.401575" lengthAdjust="spacingAndGlyphs"
text-anchor="start" opacity="0">2</text>
<g class="stroked-text"><desc>2</desc>
<path d="M33592 4099
L33616 4074
L33665 4050
L33787 4050
L33835 4074
L33860 4099
L33884 4147
L33884 4196
L33860 4269
L33567 4562
L33884 4562
" />
</g><text x="53149.606299" y="4586.614173"
textLength="547.440945" font-size="682.401575" lengthAdjust="spacingAndGlyphs"
text-anchor="start" opacity="0">3</text>
<g class="stroked-text"><desc>3</desc>
<path d="M53252 4050
L53569 4050
L53398 4245
L53472 4245
L53520 4269
L53545 4294
L53569 4342
L53569 4464
L53545 4513
L53520 4537
L53472 4562
L53325 4562
L53277 4537
L53252 4513
" />
</g><text x="72834.645669" y="4586.614173"
textLength="547.440945" font-size="682.401575" lengthAdjust="spacingAndGlyphs"
text-anchor="start" opacity="0">4</text>
<g class="stroked-text"><desc>4</desc>
<path d="M73205 4221
L73205 4562
" />
<path d="M73083 4026
L72962 4391
L73278 4391
" />
</g><text x="92519.685039" y="4586.614173"
textLength="547.440945" font-size="682.401575" lengthAdjust="spacingAndGlyphs"
text-anchor="start" opacity="0">5</text>
<g class="stroked-text"><desc>5</desc>
<path d="M92915 4050
L92671 4050
L92647 4294
L92671 4269
L92720 4245
L92842 4245
L92890 4269
L92915 4294
L92939 4342
L92939 4464
L92915 4513
L92890 4537
L92842 4562
L92720 4562
L92671 4537
L92647 4513
" />
</g><text x="112204.724409" y="4586.614173"
textLength="547.440945" font-size="682.401575" lengthAdjust="spacingAndGlyphs"
text-anchor="start" opacity="0">6</text>
<g class="stroked-text"><desc>6</desc>
<path d="M112575 4050
L112478 4050
L112429 4074
L112405 4099
L112356 4172
L112332 4269
L112332 4464
L112356 4513
L112380 4537
L112429 4562
L112527 4562
L112575 4537
L112600 4513
L112624 4464
L112624 4342
L112600 4294
L112575 4269
L112527 4245
L112429 4245
L112380 4269
L112356 4294
L112332 4342
" />
</g><path d="M23622 77955
L23622 78742
" />
<path d="M43307 77955
L43307 78742
" />
<path d="M62992 77955
L62992 78742
" />
<path d="M82677 77955
L82677 78742
" />
<path d="M102362 77955
L102362 78742
" />
<text x="13779.527559" y="78605.196850"
textLength="547.440945" font-size="682.401575" lengthAdjust="spacingAndGlyphs"
text-anchor="start" opacity="0">1</text>
<g class="stroked-text"><desc>1</desc>
<path d="M14199 78580
L13907 78580
" />
<path d="M14053 78580
L14053 78068
L14004 78142
L13955 78190
L13907 78215
" />
</g><text x="33464.566929" y="78605.196850"
textLength="547.440945" font-size="682.401575" lengthAdjust="spacingAndGlyphs"
text-anchor="start" opacity="0">2</text>
<g class="stroked-text"><desc>2</desc>
<path d="M33592 78117
L33616 78093
L33665 78068
L33787 78068
L33835 78093
L33860 78117
L33884 78166
L33884 78215
L33860 78288
L33567 78580
L33884 78580
" />
</g><text x="53149.606299" y="78605.196850"
textLength="547.440945" font-size="682.401575" lengthAdjust="spacingAndGlyphs"
text-anchor="start" opacity="0">3</text>
<g class="stroked-text"><desc>3</desc>
<path d="M53252 78068
L53569 78068
L53398 78263
L53472 78263
L53520 78288
L53545 78312
L53569 78361
L53569 78483
L53545 78532
L53520 78556
L53472 78580
L53325 78580
L53277 78556
L53252 78532
" />
</g><text x="72834.645669" y="78605.196850"
textLength="547.440945" font-size="682.401575" lengthAdjust="spacingAndGlyphs"
text-anchor="start" opacity="0">4</text>
<g class="stroked-text"><desc>4</desc>
<path d="M73205 78239
L73205 78580
" />
<path d="M73083 78044
L72962 78410
L73278 78410
" />
</g><text x="92519.685039" y="78605.196850"
textLength="547.440945" font-size="682.401575" lengthAdjust="spacingAndGlyphs"
text-anchor="start" opacity="0">5</text>
<g class="stroked-text"><desc>5</desc>
<path d="M92915 78068
L92671 78068
L92647 78312
L92671 78288
L92720 78263
L92842 78263
L92890 78288
L92915 78312
L92939 78361
L92939 78483
L92915 78532
L92890 78556
L92842 78580
L92720 78580
L92671 78556
L92647 78532
" />
</g><text x="112204.724409" y="78605.196850"
textLength="547.440945" font-size="682.401575" lengthAdjust="spacingAndGlyphs"
text-anchor="start" opacity="0">6</text>
<g class="stroked-text"><desc>6</desc>
<path d="M112575 78068
L112478 78068
L112429 78093
L112405 78117
L112356 78190
L112332 78288
L112332 78483
L112356 78532
L112380 78556
L112429 78580
L112527 78580
L112575 78556
L112600 78532
L112624 78483
L112624 78361
L112600 78312
L112575 78288
L112527 78263
L112429 78263
L112380 78288
L112356 78312
L112332 78361
" />
</g><path d="M3937 23622
L4724 23622
" />
<path d="M3937 43307
L4724 43307
" />
<path d="M3937 62992
L4724 62992
" />
<text x="4330.708661" y="14035.433071"
textLength="498.700787" font-size="682.401575" lengthAdjust="spacingAndGlyphs"
text-anchor="middle" opacity="0">A</text>
<g class="stroked-text"><desc>A</desc>
<path d="M4208 13864
L4452 13864
" />
<path d="M4160 14011
L4330 13499
L4501 14011
" />
</g><text x="4330.708661" y="33720.472441"
textLength="571.811024" font-size="682.401575" lengthAdjust="spacingAndGlyphs"
text-anchor="middle" opacity="0">B</text>
<g class="stroked-text"><desc>B</desc>
<path d="M4367 33427
L4440 33452
L4464 33476
L4489 33525
L4489 33598
L4464 33647
L4440 33671
L4391 33696
L4196 33696
L4196 33184
L4367 33184
L4415 33208
L4440 33233
L4464 33281
L4464 33330
L4440 33379
L4415 33403
L4367 33427
L4196 33427
" />
</g><text x="4330.708661" y="53405.511811"
textLength="571.811024" font-size="682.401575" lengthAdjust="spacingAndGlyphs"
text-anchor="middle" opacity="0">C</text>
<g class="stroked-text"><desc>C</desc>
<path d="M4489 53332
L4464 53356
L4391 53381
L4342 53381
L4269 53356
L4221 53307
L4196 53259
L4172 53161
L4172 53088
L4196 52991
L4221 52942
L4269 52893
L4342 52869
L4391 52869
L4464 52893
L4489 52918
" />
</g><text x="4330.708661" y="73090.551181"
textLength="571.811024" font-size="682.401575" lengthAdjust="spacingAndGlyphs"
text-anchor="middle" opacity="0">D</text>
<g class="stroked-text"><desc>D</desc>
<path d="M4196 73066
L4196 72554
L4318 72554
L4391 72578
L4440 72627
L4464 72676
L4489 72773
L4489 72846
L4464 72944
L4440 72993
L4391 73041
L4318 73066
L4196 73066
" />
</g><path d="M112992 23622
L112205 23622
" />
<path d="M112992 43307
L112205 43307
" />
<path d="M112992 62992
L112205 62992
" />
<text x="112599.291339" y="14035.433071"
textLength="498.700787" font-size="682.401575" lengthAdjust="spacingAndGlyphs"
text-anchor="middle" opacity="0">A</text>
<g class="stroked-text"><desc>A</desc>
<path d="M112477 13864
L112721 13864
" />
<path d="M112428 14011
L112599 13499
L112769 14011
" />
</g><text x="112599.291339" y="33720.472441"
textLength="571.811024" font-size="682.401575" lengthAdjust="spacingAndGlyphs"
text-anchor="middle" opacity="0">B</text>
<g class="stroked-text"><desc>B</desc>
<path d="M112635 33427
L112708 33452
L112733 33476
L112757 33525
L112757 33598
L112733 33647
L112708 33671
L112660 33696
L112465 33696
L112465 33184
L112635 33184
L112684 33208
L112708 33233
L112733 33281
L112733 33330
L112708 33379
L112684 33403
L112635 33427
L112465 33427
" />
</g><text x="112599.291339" y="53405.511811"
textLength="571.811024" font-size="682.401575" lengthAdjust="spacingAndGlyphs"
text-anchor="middle" opacity="0">C</text>
<g class="stroked-text"><desc>C</desc>
<path d="M112757 53332
L112733 53356
L112660 53381
L112611 53381
L112538 53356
L112489 53307
L112465 53259
L112440 53161
L112440 53088
L112465 52991
L112489 52942
L112538 52893
L112611 52869
L112660 52869
L112733 52893
L112757 52918
" />
</g><text x="112599.291339" y="73090.551181"
textLength="571.811024" font-size="682.401575" lengthAdjust="spacingAndGlyphs"
text-anchor="middle" opacity="0">D</text>
<g class="stroked-text"><desc>D</desc>
<path d="M112465 73066
L112465 72554
L112587 72554
L112660 72578
L112708 72627
L112733 72676
L112757 72773
L112757 72846
L112733 72944
L112708 72993
L112660 73041
L112587 73066
L112465 73066
" />
</g><text x="78741.023622" y="76321.732283"
textLength="2759.645669" font-size="787.401575" lengthAdjust="spacingAndGlyphs"
text-anchor="start" opacity="0">Date: </text>
<g class="stroked-text"><desc>Date: </desc>
<path d="M78911 76293
L78911 75703
L79052 75703
L79136 75731
L79192 75787
L79220 75843
L79249 75956
L79249 76040
L79220 76152
L79192 76209
L79136 76265
L79052 76293
L78911 76293
" />
<path d="M79755 76293
L79755 75984
L79727 75928
L79670 75899
L79558 75899
L79502 75928
" />
<path d="M79755 76265
L79699 76293
L79558 76293
L79502 76265
L79474 76209
L79474 76152
L79502 76096
L79558 76068
L79699 76068
L79755 76040
" />
<path d="M79952 75899
L80177 75899
" />
<path d="M80036 75703
L80036 76209
L80064 76265
L80120 76293
L80177 76293
" />
<path d="M80598 76265
L80542 76293
L80430 76293
L80373 76265
L80345 76209
L80345 75984
L80373 75928
L80430 75899
L80542 75899
L80598 75928
L80627 75984
L80627 76040
L80345 76096
" />
<path d="M80880 76237
L80908 76265
L80880 76293
L80852 76265
L80880 76237
L80880 76293
" />
<path d="M80880 75928
L80908 75956
L80880 75984
L80852 75956
L80880 75928
L80880 75984
" />
</g><path d="M69685 76577
L112205 76577
" />
<text x="70079.606299" y="77424.094488"
textLength="12236.614173" font-size="787.401575" lengthAdjust="spacingAndGlyphs"
text-anchor="start" opacity="0">KiCad E.D.A.  kicad (6.0.5)</text>
<g class="stroked-text"><desc>KiCad E.D.A.  kicad (6.0.5)</desc>
<path d="M70250 77395
L70250 76805
" />
<path d="M70587 77395
L70334 77058
" />
<path d="M70587 76805
L70250 77142
" />
<path d="M70840 77395
L70840 77002
" />
<path d="M70840 76805
L70812 76833
L70840 76861
L70868 76833
L70840 76805
L70840 76861
" />
<path d="M71459 77339
L71431 77367
L71346 77395
L71290 77395
L71206 77367
L71150 77311
L71121 77255
L71093 77142
L71093 77058
L71121 76946
L71150 76889
L71206 76833
L71290 76805
L71346 76805
L71431 76833
L71459 76861
" />
<path d="M71965 77395
L71965 77086
L71937 77030
L71881 77002
L71768 77002
L71712 77030
" />
<path d="M71965 77367
L71909 77395
L71768 77395
L71712 77367
L71684 77311
L71684 77255
L71712 77199
L71768 77170
L71909 77170
L71965 77142
" />
<path d="M72499 77395
L72499 76805
" />
<path d="M72499 77367
L72443 77395
L72331 77395
L72274 77367
L72246 77339
L72218 77283
L72218 77114
L72246 77058
L72274 77030
L72331 77002
L72443 77002
L72499 77030
" />
<path d="M73231 77086
L73427 77086
" />
<path d="M73512 77395
L73231 77395
L73231 76805
L73512 76805
" />
<path d="M73765 77339
L73793 77367
L73765 77395
L73737 77367
L73765 77339
L73765 77395
" />
<path d="M74046 77395
L74046 76805
L74187 76805
L74271 76833
L74327 76889
L74355 76946
L74384 77058
L74384 77142
L74355 77255
L74327 77311
L74271 77367
L74187 77395
L74046 77395
" />
<path d="M74637 77339
L74665 77367
L74637 77395
L74609 77367
L74637 77339
L74637 77395
" />
<path d="M74890 77227
L75171 77227
" />
<path d="M74834 77395
L75030 76805
L75227 77395
" />
<path d="M75424 77339
L75452 77367
L75424 77395
L75396 77367
L75424 77339
L75424 77395
" />
<path d="M76605 77395
L76605 76805
" />
<path d="M76661 77170
L76830 77395
" />
<path d="M76830 77002
L76605 77227
" />
<path d="M77083 77395
L77083 77002
" />
<path d="M77083 76805
L77055 76833
L77083 76861
L77111 76833
L77083 76805
L77083 76861
" />
<path d="M77618 77367
L77561 77395
L77449 77395
L77393 77367
L77364 77339
L77336 77283
L77336 77114
L77364 77058
L77393 77030
L77449 77002
L77561 77002
L77618 77030
" />
<path d="M78124 77395
L78124 77086
L78096 77030
L78039 77002
L77927 77002
L77871 77030
" />
<path d="M78124 77367
L78067 77395
L77927 77395
L77871 77367
L77842 77311
L77842 77255
L77871 77199
L77927 77170
L78067 77170
L78124 77142
" />
<path d="M78658 77395
L78658 76805
" />
<path d="M78658 77367
L78602 77395
L78489 77395
L78433 77367
L78405 77339
L78377 77283
L78377 77114
L78405 77058
L78433 77030
L78489 77002
L78602 77002
L78658 77030
" />
<path d="M79558 77620
L79530 77592
L79474 77508
L79445 77452
L79417 77367
L79389 77227
L79389 77114
L79417 76974
L79445 76889
L79474 76833
L79530 76749
L79558 76721
" />
<path d="M80036 76805
L79923 76805
L79867 76833
L79839 76861
L79783 76946
L79755 77058
L79755 77283
L79783 77339
L79811 77367
L79867 77395
L79980 77395
L80036 77367
L80064 77339
L80092 77283
L80092 77142
L80064 77086
L80036 77058
L79980 77030
L79867 77030
L79811 77058
L79783 77086
L79755 77142
" />
<path d="M80345 77339
L80373 77367
L80345 77395
L80317 77367
L80345 77339
L80345 77395
" />
<path d="M80739 76805
L80795 76805
L80852 76833
L80880 76861
L80908 76917
L80936 77030
L80936 77170
L80908 77283
L80880 77339
L80852 77367
L80795 77395
L80739 77395
L80683 77367
L80655 77339
L80627 77283
L80598 77170
L80598 77030
L80627 76917
L80655 76861
L80683 76833
L80739 76805
" />
<path d="M81189 77339
L81217 77367
L81189 77395
L81161 77367
L81189 77339
L81189 77395
" />
<path d="M81751 76805
L81470 76805
L81442 77086
L81470 77058
L81526 77030
L81667 77030
L81723 77058
L81751 77086
L81780 77142
L81780 77283
L81751 77339
L81723 77367
L81667 77395
L81526 77395
L81470 77367
L81442 77339
" />
<path d="M81976 77620
L82004 77592
L82061 77508
L82089 77452
L82117 77367
L82145 77227
L82145 77114
L82117 76974
L82089 76889
L82061 76833
L82004 76749
L81976 76721
" />
</g><path d="M69685 75396
L112205 75396
" />
</g>
<g style="fill:#000000; fill-opacity:0.0; 
stroke:#000000; stroke-width:118.110236; stroke-opacity:1; 
stroke-linecap:round; stroke-linejoin:round;">
<text x="103544.173228" y="76321.732283"
textLength="2337.834646" font-size="787.401575" lengthAdjust="spacingAndGlyphs"
text-anchor="start" opacity="0">Rev: </text>
<g class="stroked-text"><desc>Rev: </desc>
<path d="M104098 76293
L103902 76012
" />
<path d="M103761 76293
L103761 75703
L103986 75703
L104042 75731
L104070 75759
L104098 75815
L104098 75899
L104070 75956
L104042 75984
L103986 76012
L103761 76012
" />
<path d="M104577 76265
L104520 76293
L104408 76293
L104352 76265
L104323 76209
L104323 75984
L104352 75928
L104408 75899
L104520 75899
L104577 75928
L104605 75984
L104605 76040
L104323 76096
" />
<path d="M104802 75899
L104942 76293
L105083 75899
" />
<path d="M105308 76237
L105336 76265
L105308 76293
L105280 76265
L105308 76237
L105308 76293
" />
<path d="M105308 75928
L105336 75956
L105308 75984
L105280 75956
L105308 75928
L105308 75984
" />
</g></g>
<g style="fill:#000000; fill-opacity:0.0; 
stroke:#000000; stroke-width:60.000000; stroke-opacity:1; 
stroke-linecap:round; stroke-linejoin:round;">
<text x="70079.606299" y="76321.732283"
textLength="3781.220472" font-size="787.401575" lengthAdjust="spacingAndGlyphs"
text-anchor="start" opacity="0">Size: A4</text>
<g class="stroked-text"><desc>Size: A4</desc>
<path d="M70222 76265
L70306 76293
L70447 76293
L70503 76265
L70531 76237
L70559 76181
L70559 76124
L70531 76068
L70503 76040
L70447 76012
L70334 75984
L70278 75956
L70250 75928
L70222 75871
L70222 75815
L70250 75759
L70278 75731
L70334 75703
L70475 75703
L70559 75731
" />
<path d="M70812 76293
L70812 75899
" />
<path d="M70812 75703
L70784 75731
L70812 75759
L70840 75731
L70812 75703
L70812 75759
" />
<path d="M71037 75899
L71346 75899
L71037 76293
L71346 76293
" />
<path d="M71796 76265
L71740 76293
L71628 76293
L71571 76265
L71543 76209
L71543 75984
L71571 75928
L71628 75899
L71740 75899
L71796 75928
L71825 75984
L71825 76040
L71543 76096
" />
<path d="M72078 76237
L72106 76265
L72078 76293
L72049 76265
L72078 76237
L72078 76293
" />
<path d="M72078 75928
L72106 75956
L72078 75984
L72049 75956
L72078 75928
L72078 75984
" />
<path d="M72781 76124
L73062 76124
" />
<path d="M72724 76293
L72921 75703
L73118 76293
" />
<path d="M73568 75899
L73568 76293
" />
<path d="M73427 75674
L73287 76096
L73652 76096
" />
</g><text x="103544.173228" y="77424.094488"
textLength="3350.196850" font-size="787.401575" lengthAdjust="spacingAndGlyphs"
text-anchor="start" opacity="0">Id: 6/5</text>
<g class="stroked-text"><desc>Id: 6/5</desc>
<path d="M103714 77395
L103714 76805
" />
<path d="M104249 77395
L104249 76805
" />
<path d="M104249 77367
L104192 77395
L104080 77395
L104024 77367
L103995 77339
L103967 77283
L103967 77114
L103995 77058
L104024 77030
L104080 77002
L104192 77002
L104249 77030
" />
<path d="M104530 77339
L104558 77367
L104530 77395
L104502 77367
L104530 77339
L104530 77395
" />
<path d="M104530 77030
L104558 77058
L104530 77086
L104502 77058
L104530 77030
L104530 77086
" />
<path d="M105514 76805
L105402 76805
L105345 76833
L105317 76861
L105261 76946
L105233 77058
L105233 77283
L105261 77339
L105289 77367
L105345 77395
L105458 77395
L105514 77367
L105542 77339
L105570 77283
L105570 77142
L105542 77086
L105514 77058
L105458 77030
L105345 77030
L105289 77058
L105261 77086
L105233 77142
" />
<path d="M106245 76777
L105739 77536
" />
<path d="M106723 76805
L106442 76805
L106414 77086
L106442 77058
L106498 77030
L106639 77030
L106695 77058
L106723 77086
L106751 77142
L106751 77283
L106723 77339
L106695 77367
L106639 77395
L106498 77395
L106442 77367
L106414 77339
" />
</g><path d="M69685 73821
L112205 73821
" />
</g>
<g style="fill:#000000; fill-opacity:0.0; 
stroke:#000000; stroke-width:157.480315; stroke-opacity:1; 
stroke-linecap:round; stroke-linejoin:round;">
<text x="70079.606299" y="74924.094488"
textLength="3705.511811" font-size="1049.842520" lengthAdjust="spacingAndGlyphs"
text-anchor="start" opacity="0">Title: </text>
<g class="stroked-text"><desc>Title: </desc>
<path d="M70360 74099
L70810 74099
" />
<path d="M70486 74886
L70585 74099
" />
<path d="M70974 74886
L71039 74361
" />
<path d="M71072 74099
L71030 74136
L71063 74174
L71105 74136
L71072 74099
L71063 74174
" />
<path d="M71302 74361
L71602 74361
" />
<path d="M71447 74099
L71363 74774
L71391 74849
L71461 74886
L71536 74886
" />
<path d="M71911 74886
L71841 74849
L71812 74774
L71897 74099
" />
<path d="M72516 74849
L72436 74886
L72286 74886
L72216 74849
L72187 74774
L72225 74474
L72272 74399
L72352 74361
L72501 74361
L72572 74399
L72600 74474
L72591 74549
L72206 74624
" />
<path d="M72895 74811
L72928 74849
L72886 74886
L72853 74849
L72895 74811
L72886 74886
" />
<path d="M72947 74399
L72980 74436
L72937 74474
L72905 74436
L72947 74399
L72937 74474
" />
</g></g>
<g style="fill:#000000; fill-opacity:0.0; 
stroke:#000000; stroke-width:60.000000; stroke-opacity:1; 
stroke-linecap:round; stroke-linejoin:round;">
<text x="70079.606299" y="73408.346457"
textLength="12437.559055" font-size="787.401575" lengthAdjust="spacingAndGlyphs"
text-anchor="start" opacity="0">File: Servo Motor.kicad_sch</text>
<g class="stroked-text"><desc>File: Servo Motor.kicad_sch</desc>
<path d="M70447 73070
L70250 73070
" />
<path d="M70250 73380
L70250 72789
L70531 72789
" />
<path d="M70756 73380
L70756 72986
" />
<path d="M70756 72789
L70728 72817
L70756 72845
L70784 72817
L70756 72789
L70756 72845
" />
<path d="M71121 73380
L71065 73352
L71037 73295
L71037 72789
" />
<path d="M71571 73352
L71515 73380
L71403 73380
L71346 73352
L71318 73295
L71318 73070
L71346 73014
L71403 72986
L71515 72986
L71571 73014
L71600 73070
L71600 73127
L71318 73183
" />
<path d="M71853 73323
L71881 73352
L71853 73380
L71825 73352
L71853 73323
L71853 73380
" />
<path d="M71853 73014
L71881 73042
L71853 73070
L71825 73042
L71853 73014
L71853 73070
" />
<path d="M72556 73352
L72640 73380
L72781 73380
L72837 73352
L72865 73323
L72893 73267
L72893 73211
L72865 73155
L72837 73127
L72781 73098
L72668 73070
L72612 73042
L72584 73014
L72556 72958
L72556 72902
L72584 72845
L72612 72817
L72668 72789
L72809 72789
L72893 72817
" />
<path d="M73371 73352
L73315 73380
L73202 73380
L73146 73352
L73118 73295
L73118 73070
L73146 73014
L73202 72986
L73315 72986
L73371 73014
L73399 73070
L73399 73127
L73118 73183
" />
<path d="M73652 73380
L73652 72986
" />
<path d="M73652 73098
L73681 73042
L73709 73014
L73765 72986
L73821 72986
" />
<path d="M73962 72986
L74102 73380
L74243 72986
" />
<path d="M74552 73380
L74496 73352
L74468 73323
L74440 73267
L74440 73098
L74468 73042
L74496 73014
L74552 72986
L74637 72986
L74693 73014
L74721 73042
L74749 73098
L74749 73267
L74721 73323
L74693 73352
L74637 73380
L74552 73380
" />
<path d="M75452 73380
L75452 72789
L75649 73211
L75846 72789
L75846 73380
" />
<path d="M76211 73380
L76155 73352
L76127 73323
L76099 73267
L76099 73098
L76127 73042
L76155 73014
L76211 72986
L76296 72986
L76352 73014
L76380 73042
L76408 73098
L76408 73267
L76380 73323
L76352 73352
L76296 73380
L76211 73380
" />
<path d="M76577 72986
L76802 72986
" />
<path d="M76661 72789
L76661 73295
L76690 73352
L76746 73380
L76802 73380
" />
<path d="M77083 73380
L77027 73352
L76999 73323
L76971 73267
L76971 73098
L76999 73042
L77027 73014
L77083 72986
L77168 72986
L77224 73014
L77252 73042
L77280 73098
L77280 73267
L77252 73323
L77224 73352
L77168 73380
L77083 73380
" />
<path d="M77533 73380
L77533 72986
" />
<path d="M77533 73098
L77561 73042
L77589 73014
L77646 72986
L77702 72986
" />
<path d="M77899 73323
L77927 73352
L77899 73380
L77871 73352
L77899 73323
L77899 73380
" />
<path d="M78180 73380
L78180 72789
" />
<path d="M78236 73155
L78405 73380
" />
<path d="M78405 72986
L78180 73211
" />
<path d="M78658 73380
L78658 72986
" />
<path d="M78658 72789
L78630 72817
L78658 72845
L78686 72817
L78658 72789
L78658 72845
" />
<path d="M79192 73352
L79136 73380
L79024 73380
L78967 73352
L78939 73323
L78911 73267
L78911 73098
L78939 73042
L78967 73014
L79024 72986
L79136 72986
L79192 73014
" />
<path d="M79699 73380
L79699 73070
L79670 73014
L79614 72986
L79502 72986
L79445 73014
" />
<path d="M79699 73352
L79642 73380
L79502 73380
L79445 73352
L79417 73295
L79417 73239
L79445 73183
L79502 73155
L79642 73155
L79699 73127
" />
<path d="M80233 73380
L80233 72789
" />
<path d="M80233 73352
L80177 73380
L80064 73380
L80008 73352
L79980 73323
L79952 73267
L79952 73098
L79980 73042
L80008 73014
L80064 72986
L80177 72986
L80233 73014
" />
<path d="M80373 73436
L80823 73436
" />
<path d="M80936 73352
L80992 73380
L81105 73380
L81161 73352
L81189 73295
L81189 73267
L81161 73211
L81105 73183
L81020 73183
L80964 73155
L80936 73098
L80936 73070
L80964 73014
L81020 72986
L81105 72986
L81161 73014
" />
<path d="M81695 73352
L81639 73380
L81526 73380
L81470 73352
L81442 73323
L81414 73267
L81414 73098
L81442 73042
L81470 73014
L81526 72986
L81639 72986
L81695 73014
" />
<path d="M81948 73380
L81948 72789
" />
<path d="M82201 73380
L82201 73070
L82173 73014
L82117 72986
L82033 72986
L81976 73014
L81948 73042
" />
</g><path d="M69685 71459
L112205 71459
" />
<text x="70079.606299" y="72345.354331"
textLength="7371.574803" font-size="787.401575" lengthAdjust="spacingAndGlyphs"
text-anchor="start" opacity="0">Sheet: /Motor /</text>
<g class="stroked-text"><desc>Sheet: /Motor /</desc>
<path d="M70222 72289
L70306 72317
L70447 72317
L70503 72289
L70531 72260
L70559 72204
L70559 72148
L70531 72092
L70503 72064
L70447 72035
L70334 72007
L70278 71979
L70250 71951
L70222 71895
L70222 71839
L70250 71782
L70278 71754
L70334 71726
L70475 71726
L70559 71754
" />
<path d="M70812 72317
L70812 71726
" />
<path d="M71065 72317
L71065 72007
L71037 71951
L70981 71923
L70897 71923
L70840 71951
L70812 71979
" />
<path d="M71571 72289
L71515 72317
L71403 72317
L71346 72289
L71318 72232
L71318 72007
L71346 71951
L71403 71923
L71515 71923
L71571 71951
L71600 72007
L71600 72064
L71318 72120
" />
<path d="M72078 72289
L72021 72317
L71909 72317
L71853 72289
L71825 72232
L71825 72007
L71853 71951
L71909 71923
L72021 71923
L72078 71951
L72106 72007
L72106 72064
L71825 72120
" />
<path d="M72274 71923
L72499 71923
" />
<path d="M72359 71726
L72359 72232
L72387 72289
L72443 72317
L72499 72317
" />
<path d="M72696 72260
L72724 72289
L72696 72317
L72668 72289
L72696 72260
L72696 72317
" />
<path d="M72696 71951
L72724 71979
L72696 72007
L72668 71979
L72696 71951
L72696 72007
" />
<path d="M73849 71698
L73343 72457
" />
<path d="M74046 72317
L74046 71726
L74243 72148
L74440 71726
L74440 72317
" />
<path d="M74805 72317
L74749 72289
L74721 72260
L74693 72204
L74693 72035
L74721 71979
L74749 71951
L74805 71923
L74890 71923
L74946 71951
L74974 71979
L75002 72035
L75002 72204
L74974 72260
L74946 72289
L74890 72317
L74805 72317
" />
<path d="M75171 71923
L75396 71923
" />
<path d="M75255 71726
L75255 72232
L75283 72289
L75340 72317
L75396 72317
" />
<path d="M75677 72317
L75621 72289
L75593 72260
L75565 72204
L75565 72035
L75593 71979
L75621 71951
L75677 71923
L75762 71923
L75818 71951
L75846 71979
L75874 72035
L75874 72204
L75846 72260
L75818 72289
L75762 72317
L75677 72317
" />
<path d="M76127 72317
L76127 71923
" />
<path d="M76127 72035
L76155 71979
L76183 71951
L76240 71923
L76296 71923
" />
<path d="M77364 71698
L76858 72457
" />
</g></g>
<g style="fill:#000000; fill-opacity:0.0; 
stroke:#000000; stroke-width:118.110236; stroke-opacity:1; 
stroke-linecap:round; stroke-linejoin:round;">
<text x="70079.606299" y="71164.251969"
textLength="60.000000" font-size="787.401575" lengthAdjust="spacingAndGlyphs"
text-anchor="start" opacity="0"></text>
<g class="stroked-text"><desc></desc>
</g></g>
<g style="fill:#000000; fill-opacity:0.0; 
stroke:#000000; stroke-width:60.000000; stroke-opacity:1; 
stroke-linecap:round; stroke-linejoin:round;">
<text x="70079.606299" y="69983.149606"
textLength="118.110236" font-size="787.401575" lengthAdjust="spacingAndGlyphs"
text-anchor="start" opacity="0"></text>
<g class="stroked-text"><desc></desc>
</g><text x="70079.606299" y="68802.047244"
textLength="60.000000" font-size="787.401575" lengthAdjust="spacingAndGlyphs"
text-anchor="start" opacity="0"></text>
<g class="stroked-text"><desc></desc>
</g><path d="M77559 75396
L77559 76577
" />
<path d="M102756 75396
L102756 77955
" />
<g >
<rect x="49350.000000" y="34850.000000" width="1800.000000" height="200.000000" rx="0.000000" />
<path style="fill:#000000; fill-opacity:0.0; 
stroke:#000000; stroke-width:60.000000; stroke-opacity:1; 
stroke-linecap:round; stroke-linejoin:round;fill:none"
d="M 49550.000000,34350.000000
49950.000000,34350.000000
" /> 
<path style="fill:#000000; fill-opacity:0.0; 
stroke:#000000; stroke-width:60.000000; stroke-opacity:1; 
stroke-linecap:round; stroke-linejoin:round;fill:none"
d="M 49750.000000,34150.000000
49750.000000,34550.000000
" /> 
</g>
<g style="fill:#000000; fill-opacity:1.0; 
stroke:#000000; stroke-width:60.000000; stroke-opacity:1; 
stroke-linecap:round; stroke-linejoin:round;">
<rect x="49350.000000" y="35450.000000" width="1800.000000" height="200.000000" rx="0.000000" />
</g>
<g style="fill:#000000; fill-opacity:0.0; 
stroke:#000000; stroke-width:60.000000; stroke-opacity:1; 
stroke-linecap:round; stroke-linejoin:round;">
<path d="M50250 34850
L50250 33750
" />
<path d="M50250 35650
L50250 36750
" />
<text x="52245.551181" y="34649.921260"
textLength="988.582677" font-size="666.653543" lengthAdjust="spacingAndGlyphs"
text-anchor="middle" opacity="0">C?</text>
<g class="stroked-text"><desc>C?</desc>
<path d="M52186 34578
L52162 34602
L52090 34626
L52043 34626
L51971 34602
L51924 34554
L51900 34507
L51876 34411
L51876 34340
L51900 34245
L51924 34197
L51971 34149
L52043 34126
L52090 34126
L52162 34149
L52186 34173
" />
<path d="M52471 34578
L52495 34602
L52471 34626
L52447 34602
L52471 34578
L52471 34626
" />
<path d="M52376 34149
L52424 34126
L52543 34126
L52590 34149
L52614 34197
L52614 34245
L52590 34292
L52566 34316
L52519 34340
L52495 34364
L52471 34411
L52471 34435
" />
</g><text x="53971.732283" y="35649.921260"
textLength="4440.944882" font-size="666.653543" lengthAdjust="spacingAndGlyphs"
text-anchor="middle" opacity="0">C_Polarized</text>
<g class="stroked-text"><desc>C_Polarized</desc>
<path d="M52185 35578
L52162 35602
L52090 35626
L52043 35626
L51971 35602
L51924 35554
L51900 35507
L51876 35411
L51876 35340
L51900 35245
L51924 35197
L51971 35149
L52043 35126
L52090 35126
L52162 35149
L52185 35173
" />
<path d="M52281 35673
L52662 35673
" />
<path d="M52781 35626
L52781 35126
L52971 35126
L53019 35149
L53043 35173
L53066 35221
L53066 35292
L53043 35340
L53019 35364
L52971 35387
L52781 35387
" />
<path d="M53352 35626
L53305 35602
L53281 35578
L53257 35530
L53257 35387
L53281 35340
L53305 35316
L53352 35292
L53424 35292
L53471 35316
L53495 35340
L53519 35387
L53519 35530
L53495 35578
L53471 35602
L53424 35626
L53352 35626
" />
<path d="M53805 35626
L53757 35602
L53733 35554
L53733 35126
" />
<path d="M54209 35626
L54209 35364
L54185 35316
L54138 35292
L54043 35292
L53995 35316
" />
<path d="M54209 35602
L54162 35626
L54043 35626
L53995 35602
L53971 35554
L53971 35507
L53995 35459
L54043 35435
L54162 35435
L54209 35411
" />
<path d="M54447 35626
L54447 35292
" />
<path d="M54447 35387
L54471 35340
L54495 35316
L54543 35292
L54590 35292
" />
<path d="M54757 35626
L54757 35292
" />
<path d="M54757 35126
L54733 35149
L54757 35173
L54781 35149
L54757 35126
L54757 35173
" />
<path d="M54947 35292
L55209 35292
L54947 35626
L55209 35626
" />
<path d="M55590 35602
L55543 35626
L55447 35626
L55400 35602
L55376 35554
L55376 35364
L55400 35316
L55447 35292
L55543 35292
L55590 35316
L55614 35364
L55614 35411
L55376 35459
" />
<path d="M56043 35626
L56043 35126
" />
<path d="M56043 35602
L55995 35626
L55900 35626
L55852 35602
L55828 35578
L55805 35530
L55805 35387
L55828 35340
L55852 35316
L55900 35292
L55995 35292
L56043 35316
" />
</g></g>
</g>
<g style="fill:#000000; fill-opacity:0.0; 
stroke:#000000; stroke-width:60.000000; stroke-opacity:1; 
stroke-linecap:round; stroke-linejoin:round;">
<g >
</g>
<g style="fill:#000000; fill-opacity:0.0; 
stroke:#000000; stroke-width:100.000000; stroke-opacity:1; 
stroke-linecap:round; stroke-linejoin:round;">
<rect x="45350.000000" y="34250.000000" width="800.000000" height="2000.000000" rx="0.000000" />
</g>
<g style="fill:#000000; fill-opacity:0.0; 
stroke:#000000; stroke-width:60.000000; stroke-opacity:1; 
stroke-linecap:round; stroke-linejoin:round;">
<path d="M45750 34250
L45750 33750
" />
<path d="M45750 36250
L45750 36750
" />
<text x="47245.551181" y="34999.921260"
textLength="988.582677" font-size="666.653543" lengthAdjust="spacingAndGlyphs"
text-anchor="middle" opacity="0">R?</text>
<g class="stroked-text"><desc>R?</desc>
<path d="M47186 34976
L47019 34737
" />
<path d="M46900 34976
L46900 34476
L47090 34476
L47138 34499
L47162 34523
L47186 34571
L47186 34642
L47162 34690
L47138 34714
L47090 34737
L46900 34737
" />
<path d="M47471 34928
L47495 34952
L47471 34976
L47447 34952
L47471 34928
L47471 34976
" />
<path d="M47376 34499
L47424 34476
L47543 34476
L47590 34499
L47614 34547
L47614 34595
L47590 34642
L47566 34666
L47519 34690
L47495 34714
L47471 34761
L47471 34785
" />
</g><text x="47626.496063" y="35999.921260"
textLength="1750.472441" font-size="666.653543" lengthAdjust="spacingAndGlyphs"
text-anchor="middle" opacity="0">1.2K</text>
<g class="stroked-text"><desc>1.2K</desc>
<path d="M47162 35976
L46876 35976
" />
<path d="M47019 35976
L47019 35476
L46971 35547
L46924 35595
L46876 35618
" />
<path d="M47376 35928
L47400 35952
L47376 35976
L47352 35952
L47376 35928
L47376 35976
" />
<path d="M47590 35523
L47614 35499
L47662 35476
L47781 35476
L47828 35499
L47852 35523
L47876 35571
L47876 35618
L47852 35690
L47566 35976
L47876 35976
" />
<path d="M48090 35976
L48090 35476
" />
<path d="M48376 35976
L48162 35690
" />
<path d="M48376 35476
L48090 35761
" />
</g></g>
</g>
<g style="fill:#000000; fill-opacity:0.0; 
stroke:#000000; stroke-width:60.000000; stroke-opacity:1; 
stroke-linecap:round; stroke-linejoin:round;">
<g >
<path style="fill:#000000; fill-opacity:0.0; 
stroke:#000000; stroke-width:60.000000; stroke-opacity:1; 
stroke-linecap:round; stroke-linejoin:round;fill:none"
d="M 62200.000000,34450.000000
62050.000000,34450.000000
" /> 
<path style="fill:#000000; fill-opacity:0.0; 
stroke:#000000; stroke-width:60.000000; stroke-opacity:1; 
stroke-linecap:round; stroke-linejoin:round;fill:none"
d="M 62200.000000,34450.000000
62150.000000,34300.000000
" /> 
<path style="fill:#000000; fill-opacity:0.0; 
stroke:#000000; stroke-width:60.000000; stroke-opacity:1; 
stroke-linecap:round; stroke-linejoin:round;fill:none"
d="M 62200.000000,33050.000000
62000.000000,33050.000000
" /> 
<path style="fill:#000000; fill-opacity:0.0; 
stroke:#000000; stroke-width:60.000000; stroke-opacity:1; 
stroke-linecap:round; stroke-linejoin:round;fill:none"
d="M 62200.000000,33050.000000
62150.000000,33200.000000
" /> 
<path style="fill:#000000; fill-opacity:0.0; 
stroke:#000000; stroke-width:60.000000; stroke-opacity:1; 
stroke-linecap:round; stroke-linejoin:round;fill:none"
d="M 63750.000000,32000.000000
62250.000000,33250.000000
" /> 
<path style="fill:#000000; fill-opacity:0.0; 
stroke:#000000; stroke-width:60.000000; stroke-opacity:1; 
stroke-linecap:round; stroke-linejoin:round;fill:none"
d="M 64250.000000,32500.000000
62900.000000,34150.000000
" /> 
</g>
<g style="fill:#000000; fill-opacity:0.0; 
stroke:#000000; stroke-width:100.000000; stroke-opacity:1; 
stroke-linecap:round; stroke-linejoin:round;">
<path style="fill:#000000; fill-opacity:0.0; 
stroke:#000000; stroke-width:100.000000; stroke-opacity:1; 
stroke-linecap:round; stroke-linejoin:round;fill:none"
d="M 63250.000000,32350.000000
59250.000000,32350.000000
59250.000000,35150.000000
63750.000000,35150.000000
63750.000000,33150.000000
" /> 
</g>
<g style="fill:#000000; fill-opacity:0.0; 
stroke:#000000; stroke-width:60.000000; stroke-opacity:1; 
stroke-linecap:round; stroke-linejoin:round;">
<path d="M62199.983768 33050.009685 A761.574803 761.574803 0.0 0 0 62199.983768 34449.990315" />
<circle cx="62500.000000" cy="33750.000000" r="70.000000" /> 
<circle cx="62500.000000" cy="33750.000000" r="560.000000" /> 
<circle cx="63600.000000" cy="32650.000000" r="50.000000" /> 
<circle cx="63800.000000" cy="32450.000000" r="50.000000" /> 
<circle cx="64000.000000" cy="32250.000000" r="50.000000" /> 
<path d="M64249.916664 32500.163307 A371.181102 371.181102 0.0 0 0 63749.836693 32000.083336" />
<path d="M59250 32750
L58250 32750
" />
<text x="59260.000000" y="33000.000000"
textLength="1702.874016" font-size="666.653543" lengthAdjust="spacingAndGlyphs"
text-anchor="start" opacity="0">PWM</text>
<g class="stroked-text"><desc>PWM</desc>
<path d="M59409 32976
L59409 32476
L59599 32476
L59647 32500
L59670 32523
L59694 32571
L59694 32642
L59670 32690
L59647 32714
L59599 32738
L59409 32738
" />
<path d="M59861 32476
L59980 32976
L60075 32619
L60170 32976
L60290 32476
" />
<path d="M60480 32976
L60480 32476
L60647 32833
L60813 32476
L60813 32976
" />
</g><text x="58750.000000" y="32650.000000"
textLength="536.181102" font-size="666.653543" lengthAdjust="spacingAndGlyphs"
text-anchor="middle" opacity="0">1</text>
<g class="stroked-text"><desc>1</desc>
<path d="M58892 32626
L58607 32626
" />
<path d="M58750 32626
L58750 32126
L58702 32197
L58654 32245
L58607 32269
" />
</g><path d="M59250 33750
L58250 33750
" />
<text x="59260.000000" y="34000.000000"
textLength="679.055118" font-size="666.653543" lengthAdjust="spacingAndGlyphs"
text-anchor="start" opacity="0">+</text>
<g class="stroked-text"><desc>+</desc>
<path d="M59409 33785
L59790 33785
" />
<path d="M59599 33976
L59599 33595
" />
</g><text x="58750.000000" y="33650.000000"
textLength="536.181102" font-size="666.653543" lengthAdjust="spacingAndGlyphs"
text-anchor="middle" opacity="0">2</text>
<g class="stroked-text"><desc>2</desc>
<path d="M58607 33173
L58630 33150
L58678 33126
L58797 33126
L58845 33150
L58869 33173
L58892 33221
L58892 33269
L58869 33340
L58583 33626
L58892 33626
" />
</g><path d="M59250 34750
L58250 34750
" />
<text x="59260.000000" y="35000.000000"
textLength="679.055118" font-size="666.653543" lengthAdjust="spacingAndGlyphs"
text-anchor="start" opacity="0">-</text>
<g class="stroked-text"><desc>-</desc>
<path d="M59409 34785
L59790 34785
" />
</g><text x="58750.000000" y="34650.000000"
textLength="536.181102" font-size="666.653543" lengthAdjust="spacingAndGlyphs"
text-anchor="middle" opacity="0">3</text>
<g class="stroked-text"><desc>3</desc>
<path d="M58583 34126
L58892 34126
L58726 34316
L58797 34316
L58845 34340
L58869 34364
L58892 34411
L58892 34530
L58869 34578
L58845 34602
L58797 34626
L58654 34626
L58607 34602
L58583 34578
" />
</g><text x="65531.259843" y="33329.291339"
textLength="1060.000000" font-size="666.653543" lengthAdjust="spacingAndGlyphs"
text-anchor="middle" opacity="0">M?</text>
<g class="stroked-text"><desc>M?</desc>
<path d="M65150 33305
L65150 32805
L65316 33162
L65483 32805
L65483 33305
" />
<path d="M65793 33257
L65816 33281
L65793 33305
L65769 33281
L65793 33257
L65793 33305
" />
<path d="M65697 32829
L65745 32805
L65864 32805
L65912 32829
L65935 32876
L65935 32924
L65912 32972
L65888 32995
L65840 33019
L65816 33043
L65793 33091
L65793 33115
" />
</g><text x="68364.566929" y="34329.291339"
textLength="6726.653543" font-size="666.653543" lengthAdjust="spacingAndGlyphs"
text-anchor="middle" opacity="0">Motor_Servo_Left </text>
<g class="stroked-text"><desc>Motor_Servo_Left </desc>
<path d="M65150 34305
L65150 33805
L65316 34162
L65483 33805
L65483 34305
" />
<path d="M65793 34305
L65745 34281
L65721 34257
L65697 34210
L65697 34067
L65721 34019
L65745 33995
L65793 33972
L65864 33972
L65912 33995
L65935 34019
L65959 34067
L65959 34210
L65935 34257
L65912 34281
L65864 34305
L65793 34305
" />
<path d="M66102 33972
L66293 33972
" />
<path d="M66174 33805
L66174 34234
L66197 34281
L66245 34305
L66293 34305
" />
<path d="M66531 34305
L66483 34281
L66459 34257
L66435 34210
L66435 34067
L66459 34019
L66483 33995
L66531 33972
L66602 33972
L66650 33995
L66674 34019
L66697 34067
L66697 34210
L66674 34257
L66650 34281
L66602 34305
L66531 34305
" />
<path d="M66912 34305
L66912 33972
" />
<path d="M66912 34067
L66935 34019
L66959 33995
L67007 33972
L67055 33972
" />
<path d="M67102 34353
L67483 34353
" />
<path d="M67578 34281
L67650 34305
L67769 34305
L67816 34281
L67840 34257
L67864 34210
L67864 34162
L67840 34115
L67816 34091
L67769 34067
L67674 34043
L67626 34019
L67602 33995
L67578 33948
L67578 33900
L67602 33853
L67626 33829
L67674 33805
L67793 33805
L67864 33829
" />
<path d="M68269 34281
L68221 34305
L68126 34305
L68078 34281
L68055 34234
L68055 34043
L68078 33995
L68126 33972
L68221 33972
L68269 33995
L68293 34043
L68293 34091
L68055 34138
" />
<path d="M68507 34305
L68507 33972
" />
<path d="M68507 34067
L68531 34019
L68555 33995
L68602 33972
L68650 33972
" />
<path d="M68769 33972
L68888 34305
L69007 33972
" />
<path d="M69269 34305
L69221 34281
L69197 34257
L69174 34210
L69174 34067
L69197 34019
L69221 33995
L69269 33972
L69340 33972
L69388 33995
L69412 34019
L69435 34067
L69435 34210
L69412 34257
L69388 34281
L69340 34305
L69269 34305
" />
<path d="M69531 34353
L69912 34353
" />
<path d="M70269 34305
L70031 34305
L70031 33805
" />
<path d="M70626 34281
L70578 34305
L70483 34305
L70435 34281
L70412 34234
L70412 34043
L70435 33995
L70483 33972
L70578 33972
L70626 33995
L70650 34043
L70650 34091
L70412 34138
" />
<path d="M70793 33972
L70983 33972
" />
<path d="M70864 34305
L70864 33876
L70888 33829
L70935 33805
L70983 33805
" />
<path d="M71078 33972
L71269 33972
" />
<path d="M71150 33805
L71150 34234
L71174 34281
L71221 34305
L71269 34305
" />
</g></g>
</g>
<g style="fill:#000000; fill-opacity:0.0; 
stroke:#000000; stroke-width:60.000000; stroke-opacity:1; 
stroke-linecap:round; stroke-linejoin:round;">
<g >
<path style="fill:#000000; fill-opacity:0.0; 
stroke:#000000; stroke-width:60.000000; stroke-opacity:1; 
stroke-linecap:round; stroke-linejoin:round;fill:none"
d="M 61700.000000,39950.000000
61550.000000,39950.000000
" /> 
<path style="fill:#000000; fill-opacity:0.0; 
stroke:#000000; stroke-width:60.000000; stroke-opacity:1; 
stroke-linecap:round; stroke-linejoin:round;fill:none"
d="M 61700.000000,39950.000000
61650.000000,39800.000000
" /> 
<path style="fill:#000000; fill-opacity:0.0; 
stroke:#000000; stroke-width:60.000000; stroke-opacity:1; 
stroke-linecap:round; stroke-linejoin:round;fill:none"
d="M 61700.000000,38550.000000
61500.000000,38550.000000
" /> 
<path style="fill:#000000; fill-opacity:0.0; 
stroke:#000000; stroke-width:60.000000; stroke-opacity:1; 
stroke-linecap:round; stroke-linejoin:round;fill:none"
d="M 61700.000000,38550.000000
61650.000000,38700.000000
" /> 
<path style="fill:#000000; fill-opacity:0.0; 
stroke:#000000; stroke-width:60.000000; stroke-opacity:1; 
stroke-linecap:round; stroke-linejoin:round;fill:none"
d="M 63250.000000,37500.000000
61750.000000,38750.000000
" /> 
<path style="fill:#000000; fill-opacity:0.0; 
stroke:#000000; stroke-width:60.000000; stroke-opacity:1; 
stroke-linecap:round; stroke-linejoin:round;fill:none"
d="M 63750.000000,38000.000000
62400.000000,39650.000000
" /> 
</g>
<g style="fill:#000000; fill-opacity:0.0; 
stroke:#000000; stroke-width:100.000000; stroke-opacity:1; 
stroke-linecap:round; stroke-linejoin:round;">
<path style="fill:#000000; fill-opacity:0.0; 
stroke:#000000; stroke-width:100.000000; stroke-opacity:1; 
stroke-linecap:round; stroke-linejoin:round;fill:none"
d="M 62750.000000,37850.000000
58750.000000,37850.000000
58750.000000,40650.000000
63250.000000,40650.000000
63250.000000,38650.000000
" /> 
</g>
<g style="fill:#000000; fill-opacity:0.0; 
stroke:#000000; stroke-width:60.000000; stroke-opacity:1; 
stroke-linecap:round; stroke-linejoin:round;">
<path d="M61699.983768 38550.009685 A761.574803 761.574803 0.0 0 0 61699.983768 39949.990315" />
<circle cx="62000.000000" cy="39250.000000" r="70.000000" /> 
<circle cx="62000.000000" cy="39250.000000" r="560.000000" /> 
<circle cx="63100.000000" cy="38150.000000" r="50.000000" /> 
<circle cx="63300.000000" cy="37950.000000" r="50.000000" /> 
<circle cx="63500.000000" cy="37750.000000" r="50.000000" /> 
<path d="M63749.916664 38000.163307 A371.181102 371.181102 0.0 0 0 63249.836693 37500.083336" />
<path d="M58750 38250
L57750 38250
" />
<text x="58760.000000" y="38500.000000"
textLength="1702.874016" font-size="666.653543" lengthAdjust="spacingAndGlyphs"
text-anchor="start" opacity="0">PWM</text>
<g class="stroked-text"><desc>PWM</desc>
<path d="M58909 38476
L58909 37976
L59099 37976
L59147 38000
L59170 38023
L59194 38071
L59194 38142
L59170 38190
L59147 38214
L59099 38238
L58909 38238
" />
<path d="M59361 37976
L59480 38476
L59575 38119
L59670 38476
L59790 37976
" />
<path d="M59980 38476
L59980 37976
L60147 38333
L60313 37976
L60313 38476
" />
</g><text x="58250.000000" y="38150.000000"
textLength="536.181102" font-size="666.653543" lengthAdjust="spacingAndGlyphs"
text-anchor="middle" opacity="0">1</text>
<g class="stroked-text"><desc>1</desc>
<path d="M58392 38126
L58107 38126
" />
<path d="M58250 38126
L58250 37626
L58202 37697
L58154 37745
L58107 37769
" />
</g><path d="M58750 39250
L57750 39250
" />
<text x="58760.000000" y="39500.000000"
textLength="679.055118" font-size="666.653543" lengthAdjust="spacingAndGlyphs"
text-anchor="start" opacity="0">+</text>
<g class="stroked-text"><desc>+</desc>
<path d="M58909 39285
L59290 39285
" />
<path d="M59099 39476
L59099 39095
" />
</g><text x="58250.000000" y="39150.000000"
textLength="536.181102" font-size="666.653543" lengthAdjust="spacingAndGlyphs"
text-anchor="middle" opacity="0">2</text>
<g class="stroked-text"><desc>2</desc>
<path d="M58107 38673
L58130 38650
L58178 38626
L58297 38626
L58345 38650
L58369 38673
L58392 38721
L58392 38769
L58369 38840
L58083 39126
L58392 39126
" />
</g><path d="M58750 40250
L57750 40250
" />
<text x="58760.000000" y="40500.000000"
textLength="679.055118" font-size="666.653543" lengthAdjust="spacingAndGlyphs"
text-anchor="start" opacity="0">-</text>
<g class="stroked-text"><desc>-</desc>
<path d="M58909 40285
L59290 40285
" />
</g><text x="58250.000000" y="40150.000000"
textLength="536.181102" font-size="666.653543" lengthAdjust="spacingAndGlyphs"
text-anchor="middle" opacity="0">3</text>
<g class="stroked-text"><desc>3</desc>
<path d="M58083 39626
L58392 39626
L58226 39816
L58297 39816
L58345 39840
L58369 39864
L58392 39911
L58392 40030
L58369 40078
L58345 40102
L58297 40126
L58154 40126
L58107 40102
L58083 40078
" />
</g><text x="65031.259843" y="38829.291339"
textLength="1060.000000" font-size="666.653543" lengthAdjust="spacingAndGlyphs"
text-anchor="middle" opacity="0">M?</text>
<g class="stroked-text"><desc>M?</desc>
<path d="M64650 38805
L64650 38305
L64816 38662
L64983 38305
L64983 38805
" />
<path d="M65293 38757
L65316 38781
L65293 38805
L65269 38781
L65293 38757
L65293 38805
" />
<path d="M65197 38329
L65245 38305
L65364 38305
L65412 38329
L65435 38376
L65435 38424
L65412 38472
L65388 38495
L65340 38519
L65316 38543
L65293 38591
L65293 38615
" />
</g><text x="67936.023622" y="39829.291339"
textLength="6869.527559" font-size="666.653543" lengthAdjust="spacingAndGlyphs"
text-anchor="middle" opacity="0">Motor_Servo_Right</text>
<g class="stroked-text"><desc>Motor_Servo_Right</desc>
<path d="M64650 39805
L64650 39305
L64816 39662
L64983 39305
L64983 39805
" />
<path d="M65293 39805
L65245 39781
L65221 39757
L65197 39710
L65197 39567
L65221 39519
L65245 39495
L65293 39472
L65364 39472
L65412 39495
L65436 39519
L65459 39567
L65459 39710
L65436 39757
L65412 39781
L65364 39805
L65293 39805
" />
<path d="M65602 39472
L65793 39472
" />
<path d="M65674 39305
L65674 39734
L65697 39781
L65745 39805
L65793 39805
" />
<path d="M66031 39805
L65983 39781
L65959 39757
L65936 39710
L65936 39567
L65959 39519
L65983 39495
L66031 39472
L66102 39472
L66150 39495
L66174 39519
L66197 39567
L66197 39710
L66174 39757
L66150 39781
L66102 39805
L66031 39805
" />
<path d="M66412 39805
L66412 39472
" />
<path d="M66412 39567
L66436 39519
L66459 39495
L66507 39472
L66555 39472
" />
<path d="M66602 39853
L66983 39853
" />
<path d="M67078 39781
L67150 39805
L67269 39805
L67316 39781
L67340 39757
L67364 39710
L67364 39662
L67340 39615
L67316 39591
L67269 39567
L67174 39543
L67126 39519
L67102 39495
L67078 39448
L67078 39400
L67102 39353
L67126 39329
L67174 39305
L67293 39305
L67364 39329
" />
<path d="M67769 39781
L67721 39805
L67626 39805
L67578 39781
L67555 39734
L67555 39543
L67578 39495
L67626 39472
L67721 39472
L67769 39495
L67793 39543
L67793 39591
L67555 39638
" />
<path d="M68007 39805
L68007 39472
" />
<path d="M68007 39567
L68031 39519
L68055 39495
L68102 39472
L68150 39472
" />
<path d="M68269 39472
L68388 39805
L68507 39472
" />
<path d="M68769 39805
L68721 39781
L68697 39757
L68674 39710
L68674 39567
L68697 39519
L68721 39495
L68769 39472
L68840 39472
L68888 39495
L68912 39519
L68936 39567
L68936 39710
L68912 39757
L68888 39781
L68840 39805
L68769 39805
" />
<path d="M69031 39853
L69412 39853
" />
<path d="M69816 39805
L69650 39567
" />
<path d="M69531 39805
L69531 39305
L69721 39305
L69769 39329
L69793 39353
L69816 39400
L69816 39472
L69793 39519
L69769 39543
L69721 39567
L69531 39567
" />
<path d="M70031 39805
L70031 39472
" />
<path d="M70031 39305
L70007 39329
L70031 39353
L70055 39329
L70031 39305
L70031 39353
" />
<path d="M70483 39472
L70483 39876
L70459 39924
L70436 39948
L70388 39972
L70316 39972
L70269 39948
" />
<path d="M70483 39781
L70436 39805
L70340 39805
L70293 39781
L70269 39757
L70245 39710
L70245 39567
L70269 39519
L70293 39495
L70340 39472
L70436 39472
L70483 39495
" />
<path d="M70721 39805
L70721 39305
" />
<path d="M70936 39805
L70936 39543
L70912 39495
L70864 39472
L70793 39472
L70745 39495
L70721 39519
" />
<path d="M71102 39472
L71293 39472
" />
<path d="M71174 39305
L71174 39734
L71197 39781
L71245 39805
L71293 39805
" />
</g></g>
</g>
<g style="fill:#000000; fill-opacity:0.0; 
stroke:#000000; stroke-width:60.000000; stroke-opacity:1; 
stroke-linecap:round; stroke-linejoin:round;">
<g >
</g>
<g style="fill:#000000; fill-opacity:0.0; 
stroke:#000000; stroke-width:100.000000; stroke-opacity:1; 
stroke-linecap:round; stroke-linejoin:round;">
<rect x="44850.000000" y="39750.000000" width="800.000000" height="2000.000000" rx="0.000000" />
</g>
<g style="fill:#000000; fill-opacity:0.0; 
stroke:#000000; stroke-width:60.000000; stroke-opacity:1; 
stroke-linecap:round; stroke-linejoin:round;">
<path d="M45250 39750
L45250 39250
" />
<path d="M45250 41750
L45250 42250
" />
<text x="46745.551181" y="40499.921260"
textLength="988.582677" font-size="666.653543" lengthAdjust="spacingAndGlyphs"
text-anchor="middle" opacity="0">R?</text>
<g class="stroked-text"><desc>R?</desc>
<path d="M46686 40476
L46519 40237
" />
<path d="M46400 40476
L46400 39976
L46590 39976
L46638 39999
L46662 40023
L46686 40071
L46686 40142
L46662 40190
L46638 40214
L46590 40237
L46400 40237
" />
<path d="M46971 40428
L46995 40452
L46971 40476
L46947 40452
L46971 40428
L46971 40476
" />
<path d="M46876 39999
L46924 39976
L47043 39976
L47090 39999
L47114 40047
L47114 40095
L47090 40142
L47066 40166
L47019 40190
L46995 40214
L46971 40261
L46971 40285
" />
</g><text x="47126.496063" y="41499.921260"
textLength="1750.472441" font-size="666.653543" lengthAdjust="spacingAndGlyphs"
text-anchor="middle" opacity="0">1.2K</text>
<g class="stroked-text"><desc>1.2K</desc>
<path d="M46662 41476
L46376 41476
" />
<path d="M46519 41476
L46519 40976
L46471 41047
L46424 41095
L46376 41118
" />
<path d="M46876 41428
L46900 41452
L46876 41476
L46852 41452
L46876 41428
L46876 41476
" />
<path d="M47090 41023
L47114 40999
L47162 40976
L47281 40976
L47328 40999
L47352 41023
L47376 41071
L47376 41118
L47352 41190
L47066 41476
L47376 41476
" />
<path d="M47590 41476
L47590 40976
" />
<path d="M47876 41476
L47662 41190
" />
<path d="M47876 40976
L47590 41261
" />
</g></g>
</g>
<g style="fill:#000000; fill-opacity:0.0; 
stroke:#000000; stroke-width:60.000000; stroke-opacity:1; 
stroke-linecap:round; stroke-linejoin:round;">
<g >
<rect x="48350.000000" y="40350.000000" width="1800.000000" height="200.000000" rx="0.000000" />
<path style="fill:#000000; fill-opacity:0.0; 
stroke:#000000; stroke-width:60.000000; stroke-opacity:1; 
stroke-linecap:round; stroke-linejoin:round;fill:none"
d="M 48550.000000,39850.000000
48950.000000,39850.000000
" /> 
<path style="fill:#000000; fill-opacity:0.0; 
stroke:#000000; stroke-width:60.000000; stroke-opacity:1; 
stroke-linecap:round; stroke-linejoin:round;fill:none"
d="M 48750.000000,39650.000000
48750.000000,40050.000000
" /> 
</g>
<g style="fill:#000000; fill-opacity:1.0; 
stroke:#000000; stroke-width:60.000000; stroke-opacity:1; 
stroke-linecap:round; stroke-linejoin:round;">
<rect x="48350.000000" y="40950.000000" width="1800.000000" height="200.000000" rx="0.000000" />
</g>
<g style="fill:#000000; fill-opacity:0.0; 
stroke:#000000; stroke-width:60.000000; stroke-opacity:1; 
stroke-linecap:round; stroke-linejoin:round;">
<path d="M49250 40350
L49250 39250
" />
<path d="M49250 41150
L49250 42250
" />
<text x="51245.551181" y="40149.921260"
textLength="988.582677" font-size="666.653543" lengthAdjust="spacingAndGlyphs"
text-anchor="middle" opacity="0">C?</text>
<g class="stroked-text"><desc>C?</desc>
<path d="M51186 40078
L51162 40102
L51090 40126
L51043 40126
L50971 40102
L50924 40054
L50900 40007
L50876 39911
L50876 39840
L50900 39745
L50924 39697
L50971 39649
L51043 39626
L51090 39626
L51162 39649
L51186 39673
" />
<path d="M51471 40078
L51495 40102
L51471 40126
L51447 40102
L51471 40078
L51471 40126
" />
<path d="M51376 39649
L51424 39626
L51543 39626
L51590 39649
L51614 39697
L51614 39745
L51590 39792
L51566 39816
L51519 39840
L51495 39864
L51471 39911
L51471 39935
" />
</g><text x="52971.732283" y="41149.921260"
textLength="4440.944882" font-size="666.653543" lengthAdjust="spacingAndGlyphs"
text-anchor="middle" opacity="0">C_Polarized</text>
<g class="stroked-text"><desc>C_Polarized</desc>
<path d="M51185 41078
L51162 41102
L51090 41126
L51043 41126
L50971 41102
L50924 41054
L50900 41007
L50876 40911
L50876 40840
L50900 40745
L50924 40697
L50971 40649
L51043 40626
L51090 40626
L51162 40649
L51185 40673
" />
<path d="M51281 41173
L51662 41173
" />
<path d="M51781 41126
L51781 40626
L51971 40626
L52019 40649
L52043 40673
L52066 40721
L52066 40792
L52043 40840
L52019 40864
L51971 40887
L51781 40887
" />
<path d="M52352 41126
L52305 41102
L52281 41078
L52257 41030
L52257 40887
L52281 40840
L52305 40816
L52352 40792
L52424 40792
L52471 40816
L52495 40840
L52519 40887
L52519 41030
L52495 41078
L52471 41102
L52424 41126
L52352 41126
" />
<path d="M52805 41126
L52757 41102
L52733 41054
L52733 40626
" />
<path d="M53209 41126
L53209 40864
L53185 40816
L53138 40792
L53043 40792
L52995 40816
" />
<path d="M53209 41102
L53162 41126
L53043 41126
L52995 41102
L52971 41054
L52971 41007
L52995 40959
L53043 40935
L53162 40935
L53209 40911
" />
<path d="M53447 41126
L53447 40792
" />
<path d="M53447 40887
L53471 40840
L53495 40816
L53543 40792
L53590 40792
" />
<path d="M53757 41126
L53757 40792
" />
<path d="M53757 40626
L53733 40649
L53757 40673
L53781 40649
L53757 40626
L53757 40673
" />
<path d="M53947 40792
L54209 40792
L53947 41126
L54209 41126
" />
<path d="M54590 41102
L54543 41126
L54447 41126
L54400 41102
L54376 41054
L54376 40864
L54400 40816
L54447 40792
L54543 40792
L54590 40816
L54614 40864
L54614 40911
L54376 40959
" />
<path d="M55043 41126
L55043 40626
" />
<path d="M55043 41102
L54995 41126
L54900 41126
L54852 41102
L54828 41078
L54805 41030
L54805 40887
L54828 40840
L54852 40816
L54900 40792
L54995 40792
L55043 40816
" />
</g></g>
</g>
<g style="fill:#000000; fill-opacity:0.0; 
stroke:#000000; stroke-width:60.000000; stroke-opacity:1; 
stroke-linecap:round; stroke-linejoin:round;">
<g >
<path style="fill:#000000; fill-opacity:0.0; 
stroke:#000000; stroke-width:60.000000; stroke-opacity:1; 
stroke-linecap:round; stroke-linejoin:round;fill:none"
d="M 39750.000000,44000.000000
39750.000000,44500.000000
40250.000000,44500.000000
39750.000000,45000.000000
39250.000000,44500.000000
39750.000000,44500.000000
" /> 
<text x="39750.000000" y="46249.960630"
textLength="1583.818898" font-size="666.653543" lengthAdjust="spacingAndGlyphs"
text-anchor="middle" opacity="0">GND</text>
<g class="stroked-text"><desc>GND</desc>
<path d="M39369 45749
L39321 45726
L39250 45726
L39178 45749
L39130 45797
L39107 45845
L39083 45940
L39083 46011
L39107 46107
L39130 46154
L39178 46202
L39250 46226
L39297 46226
L39369 46202
L39392 46178
L39392 46011
L39297 46011
" />
<path d="M39607 46226
L39607 45726
L39892 46226
L39892 45726
" />
<path d="M40130 46226
L40130 45726
L40250 45726
L40321 45749
L40369 45797
L40392 45845
L40416 45940
L40416 46011
L40392 46107
L40369 46154
L40321 46202
L40250 46226
L40130 46226
" />
</g></g>
</g>
<g style="fill:#000000; fill-opacity:0.0; 
stroke:#000000; stroke-width:62.519685; stroke-opacity:1; 
stroke-linecap:round; stroke-linejoin:round;">
</g>
<g style="fill:#000000; fill-opacity:0.0; 
stroke:#000000; stroke-width:60.000000; stroke-opacity:1; 
stroke-linecap:round; stroke-linejoin:round;">
<g transform="rotate(-90.000000 44112.480315 29750.000000)">
<text x="44112.480315" y="29750.000000"
textLength="1917.125984" font-size="666.653543" lengthAdjust="spacingAndGlyphs"
text-anchor="end" opacity="0">VOUT</text>
</g>
<g class="stroked-text"><desc>VOUT</desc>
<path d="M43588 31589
L44088 31422
L43588 31256
" />
<path d="M43588 30994
L43588 30899
L43612 30851
L43660 30803
L43755 30780
L43921 30780
L44017 30803
L44064 30851
L44088 30899
L44088 30994
L44064 31041
L44017 31089
L43921 31113
L43755 31113
L43660 31089
L43612 31041
L43588 30994
" />
<path d="M43588 30565
L43993 30565
L44041 30541
L44064 30518
L44088 30470
L44088 30375
L44064 30327
L44041 30303
L43993 30280
L43588 30280
" />
<path d="M43588 30113
L43588 29827
" />
<path d="M44088 29970
L43588 29970
" />
</g></g>
<g style="fill:#000000; fill-opacity:0.0; 
stroke:#000000; stroke-width:62.519685; stroke-opacity:1; 
stroke-linecap:round; stroke-linejoin:round;">
</g>
<g style="fill:#000000; fill-opacity:0.0; 
stroke:#000000; stroke-width:60.000000; stroke-opacity:1; 
stroke-linecap:round; stroke-linejoin:round;">
<text x="36250.000000" y="38112.480315"
textLength="1107.637795" font-size="666.653543" lengthAdjust="spacingAndGlyphs"
text-anchor="start" opacity="0">M1</text>
<g class="stroked-text"><desc>M1</desc>
<path d="M36399 38088
L36399 37588
L36565 37945
L36732 37588
L36732 38088
" />
<path d="M37232 38088
L36946 38088
" />
<path d="M37089 38088
L37089 37588
L37041 37660
L36994 37707
L36946 37731
" />
</g></g>
<g style="fill:#000000; fill-opacity:0.0; 
stroke:#000000; stroke-width:62.519685; stroke-opacity:1; 
stroke-linecap:round; stroke-linejoin:round;">
</g>
<g style="fill:#000000; fill-opacity:0.0; 
stroke:#000000; stroke-width:60.000000; stroke-opacity:1; 
stroke-linecap:round; stroke-linejoin:round;">
<text x="36500.000000" y="32612.480315"
textLength="1107.637795" font-size="666.653543" lengthAdjust="spacingAndGlyphs"
text-anchor="start" opacity="0">M2</text>
<g class="stroked-text"><desc>M2</desc>
<path d="M36649 32588
L36649 32088
L36815 32445
L36982 32088
L36982 32588
" />
<path d="M37196 32136
L37220 32112
L37268 32088
L37387 32088
L37434 32112
L37458 32136
L37482 32183
L37482 32231
L37458 32302
L37172 32588
L37482 32588
" />
</g></g>
<g style="fill:#000000; fill-opacity:0.0; 
stroke:#000000; stroke-width:100.000000; stroke-opacity:1; 
stroke-linecap:round; stroke-linejoin:round;">
<text x="46500.000000" y="45575.000000"
textLength="9112.992126" font-size="666.653543" lengthAdjust="spacingAndGlyphs"
text-anchor="start" opacity="0">WINDOW SERVO MOTOR </text>
<g class="stroked-text"><desc>WINDOW SERVO MOTOR </desc>
<path d="M46701 45051
L46758 45551
L46898 45194
L46948 45551
L47130 45051
" />
<path d="M47258 45551
L47320 45051
" />
<path d="M47496 45551
L47559 45051
L47782 45551
L47844 45051
" />
<path d="M48020 45551
L48082 45051
L48201 45051
L48270 45075
L48312 45122
L48329 45170
L48341 45265
L48332 45336
L48297 45432
L48267 45479
L48213 45527
L48139 45551
L48020 45551
" />
<path d="M48678 45051
L48773 45051
L48817 45075
L48859 45122
L48871 45217
L48850 45384
L48815 45479
L48761 45527
L48710 45551
L48615 45551
L48570 45527
L48529 45479
L48517 45384
L48538 45217
L48573 45122
L48627 45075
L48678 45051
" />
<path d="M49059 45051
L49115 45551
L49255 45194
L49306 45551
L49487 45051
" />
<path d="M49975 45527
L50044 45551
L50163 45551
L50213 45527
L50240 45503
L50270 45455
L50276 45408
L50258 45360
L50237 45336
L50192 45313
L50100 45289
L50056 45265
L50035 45241
L50017 45194
L50023 45146
L50053 45098
L50079 45075
L50130 45051
L50249 45051
L50317 45075
" />
<path d="M50505 45289
L50672 45289
" />
<path d="M50710 45551
L50472 45551
L50535 45051
L50773 45051
" />
<path d="M51210 45551
L51073 45313
" />
<path d="M50925 45551
L50987 45051
L51178 45051
L51222 45075
L51243 45098
L51261 45146
L51252 45217
L51222 45265
L51195 45289
L51145 45313
L50954 45313
" />
<path d="M51416 45051
L51520 45551
L51749 45051
" />
<path d="M52011 45051
L52106 45051
L52151 45075
L52192 45122
L52204 45217
L52184 45384
L52148 45479
L52094 45527
L52044 45551
L51948 45551
L51904 45527
L51862 45479
L51850 45384
L51871 45217
L51907 45122
L51960 45075
L52011 45051
" />
<path d="M52758 45551
L52820 45051
L52942 45408
L53154 45051
L53091 45551
" />
<path d="M53487 45051
L53582 45051
L53627 45075
L53669 45122
L53681 45217
L53660 45384
L53624 45479
L53570 45527
L53520 45551
L53425 45551
L53380 45527
L53338 45479
L53326 45384
L53347 45217
L53383 45122
L53437 45075
L53487 45051
" />
<path d="M53844 45051
L54130 45051
" />
<path d="M53925 45551
L53987 45051
" />
<path d="M54392 45051
L54487 45051
L54532 45075
L54573 45122
L54585 45217
L54565 45384
L54529 45479
L54475 45527
L54425 45551
L54329 45551
L54285 45527
L54243 45479
L54231 45384
L54252 45217
L54288 45122
L54341 45075
L54392 45051
" />
<path d="M55044 45551
L54907 45313
" />
<path d="M54758 45551
L54820 45051
L55011 45051
L55056 45075
L55076 45098
L55094 45146
L55085 45217
L55056 45265
L55029 45289
L54978 45313
L54788 45313
" />
</g></g>
<g style="fill:#000000; fill-opacity:0.0; 
stroke:#000000; stroke-width:60.000000; stroke-opacity:1; 
stroke-linecap:round; stroke-linejoin:round;">
<path d="M36250 38250
L57750 38250
" />
<path d="M36500 32750
L58250 32750
" />
<path d="M45750 33750
L50250 33750
" />
<path d="M44250 33750
L44250 39250
" />
<path d="M57750 40250
L55750 40250
" />
<path d="M45750 36750
L50250 36750
" />
<path d="M57250 34750
L57250 36750
" />
<path d="M49250 39250
L57750 39250
" />
<path d="M55750 40250
L55750 42250
" />
<path d="M49250 42250
L55750 42250
" />
<path d="M44250 29750
L44250 33750
" />
<path d="M39750 42250
L45250 42250
" />
<path d="M44250 39250
L45250 39250
" />
<path d="M39750 36750
L39750 42250
" />
<path d="M44250 33750
L45750 33750
" />
<path d="M58250 34750
L57250 34750
" />
<path d="M50250 36750
L57250 36750
" />
<path d="M50250 33750
L58250 33750
" />
<path d="M45250 42250
L49250 42250
" />
<path d="M45250 39250
L49250 39250
" />
<path d="M39750 36750
L45750 36750
" />
<path d="M39750 44000
L39750 42250
" />
</g>
<g style="fill:#000000; fill-opacity:1.0; 
stroke:#000000; stroke-width:60.000000; stroke-opacity:1; 
stroke-linecap:round; stroke-linejoin:round;">
<circle cx="44250.000000" cy="33750.000000" r="180.000000" /> 
<circle cx="45750.000000" cy="33750.000000" r="180.000000" /> 
<circle cx="50250.000000" cy="36750.000000" r="180.000000" /> 
<circle cx="50250.000000" cy="33750.000000" r="180.000000" /> 
<circle cx="45750.000000" cy="36750.000000" r="180.000000" /> 
<circle cx="49250.000000" cy="39250.000000" r="180.000000" /> 
<circle cx="49250.000000" cy="42250.000000" r="180.000000" /> 
<circle cx="39750.000000" cy="42250.000000" r="180.000000" /> 
<circle cx="45250.000000" cy="39250.000000" r="180.000000" /> 
<circle cx="45250.000000" cy="42250.000000" r="180.000000" /> 
</g> 
</svg>
